HIERARCHY
ROOT Hips
{
	OFFSET -412.092468 -576.953125 89.101967
	CHANNELS 6 Xposition Yposition Zposition Zrotation Yrotation Xrotation
	JOINT Spine
	{
		OFFSET 0.000000 2.080078 8.814247
		CHANNELS 6 Xposition Yposition Zposition Zrotation Yrotation Xrotation
		JOINT Spine1
		{
			OFFSET 0.000000 0.000000 8.844139
			CHANNELS 6 Xposition Yposition Zposition Zrotation Yrotation Xrotation
			JOINT Spine2
			{
				OFFSET 0.000000 0.000000 11.682266
				CHANNELS 6 Xposition Yposition Zposition Zrotation Yrotation Xrotation
				JOINT Spine3
				{
					OFFSET 0.000000 0.000000 11.746696
					CHANNELS 6 Xposition Yposition Zposition Zrotation Yrotation Xrotation
					JOINT Neck
					{
						OFFSET 0.000000 0.000000 17.658264
						CHANNELS 6 Xposition Yposition Zposition Zrotation Yrotation Xrotation
						JOINT Neck1
						{
							OFFSET 0.000000 0.000000 5.101517
							CHANNELS 6 Xposition Yposition Zposition Zrotation Yrotation Xrotation
							JOINT Head
							{
								OFFSET 0.000000 0.000000 5.101517
								CHANNELS 6 Xposition Yposition Zposition Zrotation Yrotation Xrotation
								JOINT HeadEnd
								{
									OFFSET 0.000000 0.000000 11.655090
									CHANNELS 6 Xposition Yposition Zposition Zrotation Yrotation Xrotation
									End Site
									{
										OFFSET 0.000000 0.000000 0.100006
									}
								}
							}
						}
					}
					JOINT RightShoulder
					{
						OFFSET -2.625397 0.000000 11.175217
						CHANNELS 6 Xposition Yposition Zposition Zrotation Yrotation Xrotation
						JOINT RightArm
						{
							OFFSET 0.000000 0.000000 10.434708
							CHANNELS 6 Xposition Yposition Zposition Zrotation Yrotation Xrotation
							JOINT RightForeArm
							{
								OFFSET 0.000000 0.000000 29.628418
								CHANNELS 6 Xposition Yposition Zposition Zrotation Yrotation Xrotation
								JOINT RightHand
								{
									OFFSET 0.000000 0.000000 22.857605
									CHANNELS 6 Xposition Yposition Zposition Zrotation Yrotation Xrotation
									JOINT RightHandThumb1
									{
										OFFSET -2.867310 -2.944275 3.959564
										CHANNELS 6 Xposition Yposition Zposition Zrotation Yrotation Xrotation
										JOINT RightHandThumb2
										{
											OFFSET 0.000000 0.000000 3.350403
											CHANNELS 6 Xposition Yposition Zposition Zrotation Yrotation Xrotation
											JOINT RightHandThumb3
											{
												OFFSET 0.000000 0.000000 3.756516
												CHANNELS 6 Xposition Yposition Zposition Zrotation Yrotation Xrotation
												JOINT RightHandThumb4
												{
													OFFSET 0.000000 0.000000 3.147339
													CHANNELS 6 Xposition Yposition Zposition Zrotation Yrotation Xrotation
													End Site
													{
														OFFSET 0.000000 0.000000 0.100006
													}
												}
											}
										}
									}
									JOINT RightHandIndex1
									{
										OFFSET -0.086761 -2.345276 10.030899
										CHANNELS 6 Xposition Yposition Zposition Zrotation Yrotation Xrotation
										JOINT RightHandIndex2
										{
											OFFSET 0.000000 0.000000 4.061096
											CHANNELS 6 Xposition Yposition Zposition Zrotation Yrotation Xrotation
											JOINT RightHandIndex3
											{
												OFFSET 0.000000 0.000000 3.248871
												CHANNELS 6 Xposition Yposition Zposition Zrotation Yrotation Xrotation
												JOINT RightHandIndex4
												{
													OFFSET 0.000000 0.000000 2.639709
													CHANNELS 6 Xposition Yposition Zposition Zrotation Yrotation Xrotation
													End Site
													{
														OFFSET 0.000000 0.000000 0.100006
													}
												}
											}
										}
									}
									JOINT RightHandMiddle1
									{
										OFFSET 0.104095 -0.006775 9.502945
										CHANNELS 6 Xposition Yposition Zposition Zrotation Yrotation Xrotation
										JOINT RightHandMiddle2
										{
											OFFSET 0.000000 0.000000 4.568726
											CHANNELS 6 Xposition Yposition Zposition Zrotation Yrotation Xrotation
											JOINT RightHandMiddle3
											{
												OFFSET 0.000000 0.000000 3.654984
												CHANNELS 6 Xposition Yposition Zposition Zrotation Yrotation Xrotation
												JOINT RightHandMiddle4
												{
													OFFSET 0.000000 0.000000 2.741241
													CHANNELS 6 Xposition Yposition Zposition Zrotation Yrotation Xrotation
													End Site
													{
														OFFSET 0.000000 0.000000 0.100006
													}
												}
											}
										}
									}
									JOINT RightHandRing1
									{
										OFFSET 0.086761 2.267456 8.921707
										CHANNELS 6 Xposition Yposition Zposition Zrotation Yrotation Xrotation
										JOINT RightHandRing2
										{
											OFFSET 0.000000 0.000000 4.061096
											CHANNELS 6 Xposition Yposition Zposition Zrotation Yrotation Xrotation
											JOINT RightHandRing3
											{
												OFFSET 0.000000 0.000000 3.654984
												CHANNELS 6 Xposition Yposition Zposition Zrotation Yrotation Xrotation
												JOINT RightHandRing4
												{
													OFFSET 0.000000 0.000000 2.741241
													CHANNELS 6 Xposition Yposition Zposition Zrotation Yrotation Xrotation
													End Site
													{
														OFFSET 0.000000 0.000000 0.100006
													}
												}
											}
										}
									}
									JOINT RightHandPinky1
									{
										OFFSET -0.173492 4.467224 7.976990
										CHANNELS 6 Xposition Yposition Zposition Zrotation Yrotation Xrotation
										JOINT RightHandPinky2
										{
											OFFSET 0.000000 0.000000 3.350403
											CHANNELS 6 Xposition Yposition Zposition Zrotation Yrotation Xrotation
											JOINT RightHandPinky3
											{
												OFFSET 0.000000 0.000000 2.842758
												CHANNELS 6 Xposition Yposition Zposition Zrotation Yrotation Xrotation
												JOINT RightHandPinky4
												{
													OFFSET 0.000000 0.000000 2.639709
													CHANNELS 6 Xposition Yposition Zposition Zrotation Yrotation Xrotation
													End Site
													{
														OFFSET 0.000000 0.000000 0.100006
													}
												}
											}
										}
									}
									JOINT RightForeArmEnd
									{
										OFFSET 0.000000 0.000000 0.000000
										CHANNELS 6 Xposition Yposition Zposition Zrotation Yrotation Xrotation
										End Site
										{
											OFFSET 0.000000 0.000000 0.100006
										}
									}
								}
								JOINT RightArmEnd
								{
									OFFSET 0.000000 0.000000 0.000000
									CHANNELS 6 Xposition Yposition Zposition Zrotation Yrotation Xrotation
									End Site
									{
										OFFSET 0.000000 0.000000 0.100006
									}
								}
							}
						}
					}
					JOINT LeftShoulder
					{
						OFFSET 2.625397 0.000000 11.175217
						CHANNELS 6 Xposition Yposition Zposition Zrotation Yrotation Xrotation
						JOINT LeftArm
						{
							OFFSET 0.000000 0.000000 10.813629
							CHANNELS 6 Xposition Yposition Zposition Zrotation Yrotation Xrotation
							JOINT LeftForeArm
							{
								OFFSET 0.000000 0.000000 28.724777
								CHANNELS 6 Xposition Yposition Zposition Zrotation Yrotation Xrotation
								JOINT LeftHand
								{
									OFFSET 0.644379 0.328857 25.716171
									CHANNELS 6 Xposition Yposition Zposition Zrotation Yrotation Xrotation
									JOINT LeftHandThumb1
									{
										OFFSET 2.867310 -2.944275 3.959564
										CHANNELS 6 Xposition Yposition Zposition Zrotation Yrotation Xrotation
										JOINT LeftHandThumb2
										{
											OFFSET 0.000000 0.000000 3.350403
											CHANNELS 6 Xposition Yposition Zposition Zrotation Yrotation Xrotation
											JOINT LeftHandThumb3
											{
												OFFSET 0.000000 0.000000 3.756516
												CHANNELS 6 Xposition Yposition Zposition Zrotation Yrotation Xrotation
												JOINT LeftHandThumb4
												{
													OFFSET 0.000000 0.000000 3.100006
													CHANNELS 6 Xposition Yposition Zposition Zrotation Yrotation Xrotation
													End Site
													{
														OFFSET 0.000000 0.000000 0.100006
													}
												}
											}
										}
									}
									JOINT LeftHandIndex1
									{
										OFFSET 0.086761 -2.345276 10.030899
										CHANNELS 6 Xposition Yposition Zposition Zrotation Yrotation Xrotation
										JOINT LeftHandIndex2
										{
											OFFSET 0.000000 0.000000 4.061096
											CHANNELS 6 Xposition Yposition Zposition Zrotation Yrotation Xrotation
											JOINT LeftHandIndex3
											{
												OFFSET 0.000000 0.000000 3.248871
												CHANNELS 6 Xposition Yposition Zposition Zrotation Yrotation Xrotation
												JOINT LeftHandIndex4
												{
													OFFSET 0.000000 0.000000 2.639709
													CHANNELS 6 Xposition Yposition Zposition Zrotation Yrotation Xrotation
													End Site
													{
														OFFSET 0.000000 0.000000 0.100006
													}
												}
											}
										}
									}
									JOINT LeftHandMiddle1
									{
										OFFSET -0.104095 -0.006775 9.502945
										CHANNELS 6 Xposition Yposition Zposition Zrotation Yrotation Xrotation
										JOINT LeftHandMiddle2
										{
											OFFSET 0.000000 0.000000 4.568726
											CHANNELS 6 Xposition Yposition Zposition Zrotation Yrotation Xrotation
											JOINT LeftHandMiddle3
											{
												OFFSET 0.000000 0.000000 3.654984
												CHANNELS 6 Xposition Yposition Zposition Zrotation Yrotation Xrotation
												JOINT LeftHandMiddle4
												{
													OFFSET 0.000000 0.000000 2.741241
													CHANNELS 6 Xposition Yposition Zposition Zrotation Yrotation Xrotation
													End Site
													{
														OFFSET 0.000000 0.000000 0.100006
													}
												}
											}
										}
									}
									JOINT LeftHandRing1
									{
										OFFSET -0.086761 2.267456 8.921707
										CHANNELS 6 Xposition Yposition Zposition Zrotation Yrotation Xrotation
										JOINT LeftHandRing2
										{
											OFFSET 0.000000 0.000000 4.061096
											CHANNELS 6 Xposition Yposition Zposition Zrotation Yrotation Xrotation
											JOINT LeftHandRing3
											{
												OFFSET 0.000000 0.000000 3.654984
												CHANNELS 6 Xposition Yposition Zposition Zrotation Yrotation Xrotation
												JOINT LeftHandRing4
												{
													OFFSET 0.000000 0.000000 2.741241
													CHANNELS 6 Xposition Yposition Zposition Zrotation Yrotation Xrotation
													End Site
													{
														OFFSET 0.000000 0.000000 0.100006
													}
												}
											}
										}
									}
									JOINT LeftHandPinky1
									{
										OFFSET 0.173492 4.467224 7.976990
										CHANNELS 6 Xposition Yposition Zposition Zrotation Yrotation Xrotation
										JOINT LeftHandPinky2
										{
											OFFSET 0.000000 0.000000 3.350403
											CHANNELS 6 Xposition Yposition Zposition Zrotation Yrotation Xrotation
											JOINT LeftHandPinky3
											{
												OFFSET 0.000000 0.000000 2.842758
												CHANNELS 6 Xposition Yposition Zposition Zrotation Yrotation Xrotation
												JOINT LeftHandPinky4
												{
													OFFSET 0.000000 0.000000 2.639709
													CHANNELS 6 Xposition Yposition Zposition Zrotation Yrotation Xrotation
													End Site
													{
														OFFSET 0.000000 0.000000 0.100006
													}
												}
											}
										}
									}
									JOINT LeftForeArmEnd
									{
										OFFSET 0.000000 0.000000 0.000000
										CHANNELS 6 Xposition Yposition Zposition Zrotation Yrotation Xrotation
										End Site
										{
											OFFSET 0.000000 0.000000 0.100006
										}
									}
								}
								JOINT LeftArmEnd
								{
									OFFSET 0.000000 0.000000 0.000000
									CHANNELS 6 Xposition Yposition Zposition Zrotation Yrotation Xrotation
									End Site
									{
										OFFSET 0.000000 0.000000 0.100006
									}
								}
							}
						}
					}
				}
			}
		}
	}
	JOINT RightUpLeg
	{
		OFFSET -11.289948 0.000000 0.000000
		CHANNELS 6 Xposition Yposition Zposition Zrotation Yrotation Xrotation
		JOINT RightLeg
		{
			OFFSET 0.000000 0.000000 -38.200329
			CHANNELS 6 Xposition Yposition Zposition Zrotation Yrotation Xrotation
			JOINT RightFoot
			{
				OFFSET 0.000000 0.000000 -39.900856
				CHANNELS 6 Xposition Yposition Zposition Zrotation Yrotation Xrotation
				JOINT RightToeBase
				{
					OFFSET 0.000000 -15.261658 0.000001
					CHANNELS 6 Xposition Yposition Zposition Zrotation Yrotation Xrotation
					JOINT RightToeBaseEnd
					{
						OFFSET 0.000000 -7.370728 0.000000
						CHANNELS 6 Xposition Yposition Zposition Zrotation Yrotation Xrotation
						End Site
						{
							OFFSET 0.000000 0.000000 0.100000
						}
					}
				}
				JOINT RightLegEnd
				{
					OFFSET 0.000000 0.000000 0.000000
					CHANNELS 6 Xposition Yposition Zposition Zrotation Yrotation Xrotation
					End Site
					{
						OFFSET 0.000000 0.000000 0.100000
					}
				}
			}
			JOINT RightUpLegEnd
			{
				OFFSET 0.000000 0.000000 0.000000
				CHANNELS 6 Xposition Yposition Zposition Zrotation Yrotation Xrotation
				End Site
				{
					OFFSET 0.000000 0.000000 0.099998
				}
			}
		}
	}
	JOINT LeftUpLeg
	{
		OFFSET 11.315674 0.000000 0.000000
		CHANNELS 6 Xposition Yposition Zposition Zrotation Yrotation Xrotation
		JOINT LeftLeg
		{
			OFFSET 0.000000 0.000000 -38.200329
			CHANNELS 6 Xposition Yposition Zposition Zrotation Yrotation Xrotation
			JOINT LeftFoot
			{
				OFFSET 0.000000 0.000000 -39.900856
				CHANNELS 6 Xposition Yposition Zposition Zrotation Yrotation Xrotation
				JOINT LeftToeBase
				{
					OFFSET 0.000000 -15.261658 0.000001
					CHANNELS 6 Xposition Yposition Zposition Zrotation Yrotation Xrotation
					JOINT LeftToeBaseEnd
					{
						OFFSET 0.000000 -7.539978 0.000000
						CHANNELS 6 Xposition Yposition Zposition Zrotation Yrotation Xrotation
						End Site
						{
							OFFSET 0.000000 0.000000 0.100000
						}
					}
				}
				JOINT LeftLegEnd
				{
					OFFSET 0.000000 0.000000 0.000000
					CHANNELS 6 Xposition Yposition Zposition Zrotation Yrotation Xrotation
					End Site
					{
						OFFSET 0.000000 0.000000 0.100000
					}
				}
			}
			JOINT LeftUpLegEnd
			{
				OFFSET 0.000000 0.000000 0.000000
				CHANNELS 6 Xposition Yposition Zposition Zrotation Yrotation Xrotation
				End Site
				{
					OFFSET 0.000000 0.000000 0.099998
				}
			}
		}
	}
}
MOTION
Frames: 2
Frame Time: 0.016667
8.261627 -13.518555 87.505798 -1.610087 1.653254 -23.174492 -0.000002 2.080073 8.814245 -0.857739 -2.600967 11.098134 -0.000002 -0.000011 8.844120 0.251111 0.394738 3.846656 0.000006 -0.000010 11.682278 -0.630663 0.834493 13.434545 -0.000007 0.000026 11.746693 0.120809 0.733202 7.333520 0.000004 -0.000013 17.658247 -3.314954 -3.627527 17.828443 0.000014 -0.000007 5.101511 -1.538817 0.189229 0.823756 0.000005 -0.000014 5.101531 -0.976131 -1.053220 -20.699115 -0.000003 0.000009 11.655078 -0.000001 0.000000 -0.000000 -2.625366 0.000002 11.175227 20.500091 -83.438902 0.347200 0.000038 -0.000053 10.434731 -6.812413 -47.378174 36.945747 -0.000008 0.000000 29.628395 22.157260 0.352064 59.738303 0.000025 -0.000053 22.857584 73.510293 -12.198584 2.004188 -2.867310 -2.944260 3.959549 32.792028 -27.372120 37.391464 0.000008 0.000031 3.350403 -34.922843 10.052883 -58.756866 -0.000015 -0.000053 3.756554 -23.319084 10.947692 -40.180777 0.000010 -0.000005 3.147341 0.000001 0.000001 -0.000001 -0.086761 -2.345287 10.030931 -116.782069 -69.525623 105.023222 0.000004 0.000000 4.061111 -12.246599 -66.865981 19.205186 0.000015 0.000015 3.248840 -12.746567 -66.866002 19.205175 -0.000001 -0.000012 2.639702 0.000001 -0.000002 0.000001 0.104076 -0.006758 9.502952 -112.179642 -75.464438 106.566640 0.000017 -0.000014 4.568748 -4.013342 -66.405975 6.891602 -0.000004 -0.000008 3.654995 -4.513307 -66.405947 6.891532 -0.000011 -0.000001 2.741235 -0.000000 0.000001 0.000001 0.086754 2.267436 8.921680 -156.465495 -76.678388 157.691050 -0.000008 -0.000029 4.061089 6.361260 -71.096081 -10.288290 0.000006 0.000008 3.654964 7.361327 -71.096088 -10.288357 0.000003 0.000000 2.741235 0.000000 -0.000000 -0.000001 -0.173485 4.467218 7.976974 168.874583 -73.424581 -160.667209 -0.000015 -0.000008 3.350399 20.425657 -69.733506 -31.764160 -0.000015 0.000011 2.842743 22.425654 -69.733493 -31.764150 0.000006 0.000001 2.639710 0.000001 -0.000000 0.000004 0.000006 0.000034 0.000005 0.000004 0.000001 -0.000000 0.000006 -0.000016 -0.000002 0.000002 0.000000 0.000000 2.625370 0.000000 11.175190 -17.688745 82.122930 -0.773695 -0.000031 0.000008 10.813629 -0.004026 48.282860 22.372457 0.000008 -0.000008 28.724844 -17.147941 0.050962 71.291465 0.644323 0.328916 25.716185 -72.461354 1.341649 3.710961 2.867353 -2.944305 3.959579 -33.448136 29.128264 35.046380 -0.000031 0.000031 3.350380 38.531013 -8.984246 -64.663716 0.000008 0.000008 3.756538 25.945151 -11.070390 -44.369148 -0.000005 0.000011 3.100030 -0.000000 -0.000000 -0.000003 0.086731 -2.345296 10.030895 -9.173633 101.358894 -30.659770 0.000031 -0.000008 4.061096 -17.079684 71.195822 -24.376906 0.000019 0.000017 3.248863 -17.579619 71.195829 -24.376856 0.000002 0.000018 2.639699 -0.000002 0.000000 0.000001 -0.104095 -0.006771 9.502956 150.774746 76.857380 137.666793 0.000021 0.000000 4.568752 -5.890802 71.291746 -8.902790 -0.000004 -0.000031 3.655006 -6.390824 71.291711 -8.902811 -0.000005 0.000014 2.741259 -0.000002 -0.000001 0.000000 -0.086782 2.267429 8.921715 -31.543050 116.924219 -32.764598 0.000031 0.000021 4.061077 13.177894 78.402300 17.338811 0.000013 0.000028 3.654961 14.177971 78.402348 17.338900 -0.000001 -0.000012 2.741261 0.000000 -0.000001 -0.000003 0.173462 4.467163 7.976974 139.693338 55.187816 151.228721 0.000019 -0.000011 3.350395 45.880706 77.121551 58.231078 0.000008 0.000031 2.842779 47.880760 77.121558 58.231133 0.000001 -0.000002 2.639715 0.000001 0.000000 -0.000002 0.000003 -0.000001 0.000009 0.000000 -0.000001 -0.000000 0.000010 -0.000005 0.000011 0.000001 -0.000001 -0.000000 -11.289932 0.000034 0.000004 -10.509880 7.154404 19.370656 0.000026 0.000040 -38.200321 -1.200312 0.295246 13.600539 0.000061 0.000065 -39.900837 -11.911245 -4.150645 16.137130 0.000022 -15.261615 0.000021 1.666301 1.515534 -16.377844 0.000043 -7.370789 0.000001 0.000000 0.000000 -0.000000 -0.000012 0.000115 -0.000001 0.000001 0.000001 0.000002 0.000054 0.000071 -0.000014 -0.000001 -0.000000 -0.000001 11.315670 -0.000022 0.000008 -2.168027 -7.342623 13.497155 -0.000050 -0.000042 -38.200359 0.853237 -0.335759 21.478530 -0.000007 0.000051 -39.900841 13.303257 5.099345 13.753265 -0.000047 -15.261716 0.000004 -0.933881 -1.297064 -21.453276 -0.000010 -7.539986 0.000002 0.000001 0.000000 -0.000000 0.000004 0.000007 0.000002 -0.000001 -0.000001 0.000004 -0.000000 -0.000001 -0.000001 0.000000 -0.000001 -0.000001 
8.126587 -13.706482 87.445236 -1.452883 1.629953 -23.661017 0.000007 2.080090 8.814238 -0.902575 -2.605251 11.165633 -0.000010 0.000005 8.844144 0.260851 0.474409 3.736338 0.000007 0.000004 11.682264 -0.652048 0.829921 14.525890 0.000003 0.000029 11.746689 0.085435 0.583397 7.635480 0.000002 0.000023 17.658255 -3.227391 -3.845995 15.721741 -0.000002 0.000030 5.101490 -1.427318 0.062630 -0.245943 0.000004 -0.000011 5.101512 -0.962584 -0.849225 -20.223816 0.000011 -0.000002 11.655084 0.000000 -0.000000 -0.000001 -2.625385 -0.000011 11.175245 20.399755 -84.789695 0.415396 -0.000023 0.000011 10.434669 -12.087191 -46.287058 40.314478 -0.000008 0.000038 29.628428 21.298811 0.146890 49.107465 -0.000017 -0.000053 22.857580 71.748576 -12.639552 1.619646 -2.867319 -2.944275 3.959518 32.664915 -26.982881 37.911337 0.000000 -0.000031 3.350380 -34.105600 10.240051 -57.433244 -0.000038 -0.000015 3.756516 -22.737435 10.894852 -39.251427 0.000006 -0.000004 3.147333 -0.000001 0.000001 -0.000000 -0.086788 -2.345284 10.030900 -106.847347 -70.850993 95.740913 0.000004 -0.000017 4.061081 -10.373567 -64.517482 17.150434 0.000015 0.000031 3.248886 -10.873262 -64.517434 17.150171 -0.000005 -0.000005 2.639719 0.000001 0.000000 -0.000001 0.104076 -0.006771 9.502907 -98.086270 -76.379690 93.213695 -0.000008 0.000009 4.568708 -3.348455 -63.966450 6.159242 0.000002 0.000012 3.654976 -3.848458 -63.966470 6.159238 -0.000009 -0.000016 2.741272 0.000002 -0.000001 -0.000002 0.086758 2.267467 8.921692 -147.361249 -79.953791 149.581047 0.000000 0.000010 4.061108 5.079242 -68.478821 -8.922511 0.000011 -0.000022 3.654980 6.079151 -68.477790 -8.922334 -0.000018 -0.000022 2.741251 0.000001 0.000002 -0.000003 -0.173477 4.467272 7.976955 166.282007 -77.477978 -156.590761 -0.000008 0.000011 3.350403 16.409463 -67.134148 -27.447032 0.000000 -0.000015 2.842758 18.409305 -67.134121 -27.446845 0.000001 -0.000001 2.639688 -0.000000 0.000000 -0.000001 0.000004 0.000019 0.000001 0.000006 0.000002 0.000003 0.000014 0.000019 -0.000006 -0.000002 0.000000 -0.000001 2.625378 0.000021 11.175200 -17.340112 83.046289 -0.749141 -0.000008 0.000031 10.813629 7.723959 48.595345 26.956696 -0.000011 0.000000 28.724787 -16.492387 0.047352 63.726061 0.644268 0.328914 25.716171 -74.015304 1.111644 3.178399 2.867354 -2.944275 3.959579 -33.448140 29.128267 35.046363 -0.000015 0.000000 3.350388 38.531033 -8.984228 -64.663716 0.000000 -0.000008 3.756516 25.945134 -11.070385 -44.369162 0.000000 0.000004 3.100027 -0.000000 0.000000 -0.000002 0.086761 -2.345296 10.030891 -9.568919 100.833885 -30.430047 -0.000023 0.000000 4.061066 -16.548596 70.809295 -23.815241 0.000038 -0.000011 3.248871 -17.048688 70.809302 -23.815333 0.000001 -0.000002 2.639735 0.000000 -0.000001 -0.000001 -0.104065 -0.006752 9.502930 149.406440 77.369849 136.749745 0.000008 0.000022 4.568705 -5.686337 70.863254 -8.686641 0.000006 0.000008 3.654966 -6.186401 70.863240 -8.686702 -0.000012 0.000001 2.741262 0.000000 -0.000000 -0.000001 -0.086767 2.267431 8.921700 -32.538970 116.241460 -33.376051 0.000011 -0.000008 4.061085 12.394743 77.873726 16.538564 0.000010 -0.000010 3.654987 13.394774 77.873705 16.538622 0.000003 0.000000 2.741265 0.000000 0.000000 -0.000002 0.173508 4.467228 7.976967 138.404016 56.101740 150.743067 0.000031 -0.000034 3.350407 43.306452 76.742223 55.588413 0.000031 -0.000019 2.842745 45.306479 76.742189 55.588441 0.000001 -0.000011 2.639706 0.000000 0.000000 -0.000004 0.000019 -0.000015 0.000011 0.000002 0.000001 -0.000000 0.000005 0.000000 -0.000017 0.000000 -0.000001 0.000001 -11.289940 -0.000032 0.000038 -10.298213 7.080920 19.736349 0.000030 0.000031 -38.200314 -1.173306 0.295590 14.257165 0.000034 0.000016 -39.900829 -12.309189 -3.922639 15.481448 0.000038 -15.261618 -0.000004 1.667163 1.511793 -16.211102 0.000033 -7.370741 0.000001 0.000002 0.000001 0.000000 -0.000014 0.000064 -0.000001 -0.000000 -0.000001 0.000000 0.000039 0.000064 -0.000011 -0.000000 -0.000000 -0.000001 11.315685 0.000023 0.000008 -2.314248 -7.373595 14.041016 0.000002 -0.000043 -38.200352 0.869674 -0.344269 21.602403 -0.000062 0.000013 -39.900833 13.164017 5.263334 13.596292 0.000010 -15.261660 0.000027 -0.964984 -1.300738 -21.302131 -0.000005 -7.539975 0.000002 -0.000000 -0.000000 0.000000 0.000003 0.000015 0.000002 -0.000002 0.000000 -0.000001 0.000000 -0.000000 0.000004 0.000000 0.000000 -0.000000 
